<svg xmlns="http://www.w3.org/2000/svg" xmlns:xlink="http://www.w3.org/1999/xlink" width="18" height="18" viewBox="0 0 18 18">
  <defs>
    <path id="add-photo-a" d="M14.8833333,4.81666667 L14.8833333,7.35816667 C14.8833333,7.35816667 13.1918333,7.36666667 13.1833333,7.35816667 L13.1833333,4.81666667 L10.6333333,4.81666667 C10.6333333,4.81666667 10.6418333,3.12516667 10.6333333,3.11666667 L13.1833333,3.11666667 L13.1833333,0.566666667 L14.8833333,0.566666667 L14.8833333,3.11666667 L17.4333333,3.11666667 L17.4333333,4.81666667 L14.8833333,4.81666667 Z M12.3333333,8.21666667 L12.3333333,5.66666667 L9.78333333,5.66666667 L9.78333333,3.11666667 L2.98333333,3.11666667 C2.04833333,3.11666667 1.28333333,3.88166667 1.28333333,4.81666667 L1.28333333,15.0166667 C1.28333333,15.9516667 2.04833333,16.7166667 2.98333333,16.7166667 L13.1833333,16.7166667 C14.1183333,16.7166667 14.8833333,15.9516667 14.8833333,15.0166667 L14.8833333,8.21666667 L12.3333333,8.21666667 Z M2.98333333,15.0166667 L5.53333333,11.6166667 L7.23333333,14.1666667 L9.78333333,10.7666667 L13.1833333,15.0166667 L2.98333333,15.0166667 Z"/>
  </defs>
  <g fill="none" fill-rule="evenodd">
    <polygon points="0 0 18 0 18 18 0 18"/>
    <mask id="add-photo-b" fill="#fff">
      <use xlink:href="#add-photo-a"/>
    </mask>
    <use fill="#000" fill-rule="nonzero" xlink:href="#add-photo-a"/>
    <g fill="#3B474E" mask="url(#add-photo-b)">
      <polygon points="0 0 18 0 18 18 0 18"/>
    </g>
  </g>
</svg>
