<?xml version="1.0" encoding="UTF-8"?>
<svg width="18px" height="18px" viewBox="0 0 18 18" version="1.1" xmlns="http://www.w3.org/2000/svg" xmlns:xlink="http://www.w3.org/1999/xlink">
    <!-- Generator: Sketch 52.3 (67297) - http://www.bohemiancoding.com/sketch -->
    <title>open-folder</title>
    <desc>Created with Sketch.</desc>
    <g id="open-folder" stroke="none" stroke-width="1" fill="none" fill-rule="evenodd">
        <g id="Mask" transform="translate(0.500000, 3.000000)" fill="#0A90EB" fill-rule="nonzero">
            <path d="M2.92424243,10.1818182 L2.92424243,4.55757576 C2.92424243,3.91491714 3.44522017,3.39393939 4.08787879,3.39393939 L14.0757576,3.39393939 L14.0757576,2.90909091 C14.0757576,2.64131649 13.8586835,2.42424242 13.5909091,2.42424242 L7.37106564,2.42424242 L5.91660403,0.969780819 L1.96181819,0.970606341 C1.6941621,0.970606341 1.47713708,1.18749576 1.47696965,1.45535382 L1.46969707,10.1824239 C1.46952979,10.4500777 1.68627262,10.6672123 1.95388052,10.667575 L2.43939394,10.6666667 C2.70716836,10.6666667 2.92424243,10.4495926 2.92424243,10.1818182 Z M15.0454545,3.39393939 L15.3363636,3.39393939 C15.9790223,3.39393939 16.5,3.91491714 16.5,4.55757576 L16.5,10.4727273 C16.5,11.1153859 15.9790223,11.6363636 15.3363636,11.6363636 L2.43939394,11.6363636 L1.95454546,11.6372724 C1.15031326,11.63677 0.499498213,10.985141 0.50000029,10.1818179 L0.507273018,1.45454574 C0.507774873,0.651577622 1.15884992,0.000909375 1.96181819,0.000909375 L6.31818182,0 L7.77272728,1.45454545 L13.5909091,1.45454545 C14.3942323,1.45454545 15.0454545,2.10576764 15.0454545,2.90909091 L15.0454545,3.39393939 Z" id="path-1"></path>
        </g>
    </g>
</svg>