<svg xmlns="http://www.w3.org/2000/svg" xmlns:xlink="http://www.w3.org/1999/xlink" width="18" height="18" viewBox="0 0 18 18">
  <defs>
    <path id="presets-a" d="M14.265,7.5 L14.265,14.25 L3.75,14.25 L3.75,3.75 L10.5,3.75 L10.5,2.25 L3.765,2.25 C2.94,2.25 2.265,2.925 2.265,3.75 L2.265,14.25 C2.265,15.075 2.94,15.75 3.765,15.75 L14.265,15.75 C15.09,15.75 15.765,15.075 15.765,14.25 L15.765,7.5 L14.265,7.5 Z M12.75,7.5 L13.455,5.955 L15,5.25 L13.455,4.545 L12.75,3 L12.045,4.545 L10.5,5.25 L12.045,5.955 L12.75,7.5 Z M9.9375,8.0625 L9,6 L8.0625,8.0625 L6,9 L8.0625,9.9375 L9,12 L9.9375,9.9375 L12,9 L9.9375,8.0625 Z"/>
  </defs>
  <g fill="none" fill-rule="evenodd">
    <polygon points="0 0 18 0 18 18 0 18"/>
    <mask id="presets-b" fill="#fff">
      <use xlink:href="#presets-a"/>
    </mask>
    <use fill="#000" fill-rule="nonzero" xlink:href="#presets-a"/>
    <g fill="#3B474E" mask="url(#presets-b)">
      <polygon points="0 0 18 0 18 18 0 18"/>
    </g>
  </g>
</svg>
