<svg xmlns="http://www.w3.org/2000/svg" xmlns:xlink="http://www.w3.org/1999/xlink" width="18" height="18" viewBox="0 0 18 18">
  <defs>
    <path id="reset-a" d="M9.71338835,1.69854346 C5.98588835,1.69854346 2.96338835,4.72104346 2.96338835,8.44854346 L0.713388348,8.44854346 L3.63088835,11.3660435 L3.68338835,11.4710435 L6.71338835,8.44854346 L4.46338835,8.44854346 C4.46338835,5.54604346 6.81088835,3.19854346 9.71338835,3.19854346 C12.6158883,3.19854346 14.9633883,5.54604346 14.9633883,8.44854346 C14.9633883,11.3510435 12.6158883,13.6985435 9.71338835,13.6985435 C8.26588835,13.6985435 6.95338835,13.1060435 6.00838835,12.1535435 L4.94338835,13.2185435 C6.16588835,14.4410435 7.84588835,15.1985435 9.71338835,15.1985435 C13.4408883,15.1985435 16.4633883,12.1760435 16.4633883,8.44854346 C16.4633883,4.72104346 13.4408883,1.69854346 9.71338835,1.69854346 Z"/>
  </defs>
  <g fill="none" fill-rule="evenodd">
    <polygon points="0 0 18 0 18 18 0 18"/>
    <mask id="reset-b" fill="#fff">
      <use xlink:href="#reset-a"/>
    </mask>
    <use fill="#000" fill-rule="nonzero" transform="rotate(45 8.588 8.449)" xlink:href="#reset-a"/>
    <g fill="#3B474E" mask="url(#reset-b)">
      <polygon points="0 0 18 0 18 18 0 18"/>
    </g>
  </g>
</svg>
