<svg xmlns="http://www.w3.org/2000/svg" xmlns:xlink="http://www.w3.org/1999/xlink" width="18" height="18" viewBox="0 0 18 18">
  <defs>
    <path id="rotate-left-a" d="M5.3325,6.3975 L4.275,5.3325 C3.6,6.2025 3.18,7.2075 3.0525,8.25 L4.5675,8.25 C4.6725,7.5975 4.935,6.96 5.3325,6.3975 Z M4.5675,9.75 L3.0525,9.75 C3.18,10.7925 3.5925,11.7975 4.2675,12.6675 L5.325,11.6025 C4.935,11.04 4.6725,10.41 4.5675,9.75 Z M5.325,13.74 C6.195,14.415 7.2075,14.82 8.25,14.9475 L8.25,13.425 C7.5975,13.3125 6.9675,13.0575 6.405,12.6525 L5.325,13.74 Z M9.75,3.0525 L9.75,0.75 L6.3375,4.1625 L9.75,7.5 L9.75,4.5675 C11.88,4.9275 13.5,6.7725 13.5,9 C13.5,11.2275 11.88,13.0725 9.75,13.4325 L9.75,14.9475 C12.7125,14.58 15,12.06 15,9 C15,5.94 12.7125,3.42 9.75,3.0525 Z"/>
  </defs>
  <g fill="none" fill-rule="evenodd">
    <polygon points="0 0 18 0 18 18 0 18"/>
    <mask id="rotate-left-b" fill="#fff">
      <use xlink:href="#rotate-left-a"/>
    </mask>
    <use fill="#000" fill-rule="nonzero" xlink:href="#rotate-left-a"/>
    <g fill="#3B474E" mask="url(#rotate-left-b)">
      <polygon points="0 0 18 0 18 18 0 18"/>
    </g>
  </g>
</svg>
