<svg xmlns="http://www.w3.org/2000/svg" xmlns:xlink="http://www.w3.org/1999/xlink" width="18" height="18" viewBox="0 0 18 18">
  <defs>
    <path id="rotate-right-a" d="M11.6625,4.1625 L8.25,0.75 L8.25,3.0525 C5.295,3.42 3,5.94 3,9 C3,12.06 5.2875,14.58 8.25,14.9475 L8.25,13.4325 C6.12,13.0725 4.5,11.2275 4.5,9 C4.5,6.7725 6.12,4.9275 8.25,4.5675 L8.25,7.5 L11.6625,4.1625 Z M14.9475,8.25 C14.82,7.2075 14.4075,6.2025 13.7325,5.3325 L12.6675,6.3975 C13.0725,6.96 13.3275,7.5975 13.4325,8.25 L14.9475,8.25 Z M9.75,13.425 L9.75,14.94 C10.7925,14.8125 11.805,14.4075 12.675,13.7325 L11.595,12.6525 C11.0325,13.0575 10.4025,13.32 9.75,13.425 Z M12.6675,11.61 L13.7325,12.6675 C14.4075,11.7975 14.82,10.7925 14.9475,9.75 L13.4325,9.75 C13.3275,10.4025 13.0725,11.04 12.6675,11.61 Z"/>
  </defs>
  <g fill="none" fill-rule="evenodd">
    <mask id="rotate-right-b" fill="#fff">
      <use xlink:href="#rotate-right-a"/>
    </mask>
    <use fill="#000" fill-rule="nonzero" xlink:href="#rotate-right-a"/>
    <g fill="#3B474E" mask="url(#rotate-right-b)">
      <polygon points="0 0 18 0 18 18 0 18"/>
    </g>
  </g>
</svg>
