<?xml version="1.0" encoding="UTF-8"?>
<svg width="14px" height="16px" viewBox="0 0 14 16" version="1.1" xmlns="http://www.w3.org/2000/svg" xmlns:xlink="http://www.w3.org/1999/xlink">
    <title>baseline-settings-20px</title>
    <desc>Created with Sketch.</desc>
    <g id="light" stroke="none" stroke-width="1" fill="none" fill-rule="evenodd">
        <g id="ckfinder-main" transform="translate(-1082.000000, -14.000000)">
            <g id="baseline-settings-20px" transform="translate(1080.000000, 13.000000)">
                <polygon id="Shape" points="0 0 18 0 18 18 0 18"></polygon>
                <path d="M14.355,9.702 C14.382,9.477 14.4,9.243 14.4,9 C14.4,8.757 14.382,8.523 14.346,8.298 L15.867,7.11 C16.002,7.002 16.038,6.804 15.957,6.651 L14.517,4.158 C14.427,3.996 14.238,3.942 14.076,3.996 L12.285,4.716 C11.907,4.428 11.511,4.194 11.07,4.014 L10.8,2.106 C10.773,1.926 10.62,1.8 10.44,1.8 L7.56,1.8 C7.38,1.8 7.236,1.926 7.209,2.106 L6.939,4.014 C6.498,4.194 6.093,4.437 5.724,4.716 L3.933,3.996 C3.771,3.933 3.582,3.996 3.492,4.158 L2.052,6.651 C1.962,6.813 1.998,7.002 2.142,7.11 L3.663,8.298 C3.627,8.523 3.6,8.766 3.6,9 C3.6,9.234 3.618,9.477 3.654,9.702 L2.133,10.89 C1.998,10.998 1.962,11.196 2.043,11.349 L3.483,13.842 C3.573,14.004 3.762,14.058 3.924,14.004 L5.715,13.284 C6.093,13.572 6.489,13.806 6.93,13.986 L7.2,15.894 C7.236,16.074 7.38,16.2 7.56,16.2 L10.44,16.2 C10.62,16.2 10.773,16.074 10.791,15.894 L11.061,13.986 C11.502,13.806 11.907,13.563 12.276,13.284 L14.067,14.004 C14.229,14.067 14.418,14.004 14.508,13.842 L15.948,11.349 C16.038,11.187 16.002,10.998 15.858,10.89 L14.355,9.702 Z M9,11.7 C7.515,11.7 6.3,10.485 6.3,9 C6.3,7.515 7.515,6.3 9,6.3 C10.485,6.3 11.7,7.515 11.7,9 C11.7,10.485 10.485,11.7 9,11.7 Z" id="Shape" fill="#3B474E" fill-rule="nonzero"></path>
            </g>
        </g>
    </g>
</svg>