<svg id="图层_1" data-name="图层 1" xmlns="http://www.w3.org/2000/svg" viewBox="0 0 46.08 34"><defs><style>.cls-1{fill:#006fcf;}.cls-2{fill:#fff;}</style></defs><title>画板 1</title><path class="cls-1" d="M42,34H4a4,4,0,0,1-4-4V4A4,4,0,0,1,4,0H42a4,4,0,0,1,4,4V30A4,4,0,0,1,42,34Z"/><path class="cls-2" d="M7.34,13.4l-.8-1.7-.8,1.7Zm16.9-1.5c-.1-.1-.2-.1-.5-.1h-1.2v1h1.2a.9.9,0,0,0,.5-.1c.2-.1.2-.2.2-.5S24.24,11.9,24.24,11.9Zm8.9-.2-.8,1.7h1.3Zm11.1,9.6V18h-25l-.9,1-.9-1h-6.2v7.2h5.9l1-1,.9,1h3.9V23.5h.2a4.44,4.44,0,0,0,1.3-.2V25h17a2.58,2.58,0,0,0,2.9-2.7A1.23,1.23,0,0,0,44.24,21.3Zm-21,1.1h-1.3v1.7h-2.4l-1.3-1.5-1.5,1.7h-4.3v-5h4.5l1.3,1.5,1.5-1.5h3.6c1.2,0,1.9.6,1.9,1.7C25.34,21.9,24.54,22.4,23.24,22.4Zm6.8-.3a2.15,2.15,0,0,1,.2,1v1H29v-.9a2.48,2.48,0,0,0-.1-.9c-.1-.1-.3-.2-.9-.2H26.9v1.8h-1V19.1h2.7a3.64,3.64,0,0,1,1.5.2,1.4,1.4,0,0,1,.8,1.1,1.18,1.18,0,0,1-.8,1.3c-.4.1-.2.2-.1.4Zm4.5-1.8h-2.6V21h2.5v1.1h-2.5V23h2.7v1h-3.9V19h3.9v1.3Zm2.8,3.8h-2.4V23h2.4a.9.9,0,0,0,.5-.1c.2-.1.1-.1.1-.2a.35.35,0,0,0-.1-.2.37.37,0,0,0-.3-.1h-.2c-1,0-2.1-.1-2.1-1.7,0-.9.5-1.5,1.7-1.5H39v1.1H36.9a1.09,1.09,0,0,0-.5.1c-.1.1-.1.1-.1.2a.22.22,0,0,0,.2.2c.1.1.2.1.5.1h.8c.8,0,1,.1,1.3.5a1.61,1.61,0,0,1,.3,1.1,2,2,0,0,1-2.1,1.6Zm4.3,0h-2.4V23h2.4a.9.9,0,0,0,.5-.1c.2-.1.1-.1.1-.2a.35.35,0,0,0-.1-.2.37.37,0,0,0-.3-.1h-.2c-1,0-2.1-.1-2.1-1.7,0-.9.5-1.5,1.7-1.5h2.4v1.1h-2.1a1.09,1.09,0,0,0-.5.1c-.1.1-.1.1-.1.2a.22.22,0,0,0,.2.2c.1.1.2.1.5.1h.8c.8,0,1,.1,1.3.5a1.61,1.61,0,0,1,.3,1.1A2.71,2.71,0,0,1,41.64,24.1Z"/><path class="cls-2" d="M13.74,20.3V21h2.5v1.2h-2.5v.9h2.7l1.2-1.5-1.2-1.3Zm8.2,1h1.3c.5,0,.8-.2.8-.6s-.2-.6-.8-.6h-1.5Zm-1.3,2.1V19.8l-1.5,1.8Zm8-6.9a6.75,6.75,0,0,0,1.7.3h2.1l.5-1.1h.9l.5,1.1h7.9V9.4H30.54a4,4,0,0,0-1.7.3V9.4H13.24l-.8,1.5-.8-1.5h-7l-2.9,7.2h3.8L6,15.5h.9l.5,1.1h21C28.74,16.8,28.64,16.5,28.64,16.5ZM16,15.8H14.8V12.2l-1.5,3.6h-.9l-1.5-3.6v3.6H8.44l-.5-1.1H5.64l-.5,1.1H3.94l2-5h1.7l1.8,4.3V10.8h1.9l1.6,3.2,1.3-3.2h1.9v5Zm4.6-4H17.9v.8h2.5v1.2H17.9v.9h2.7v1.1H16.7V10.9h3.9Zm5,2a2.15,2.15,0,0,1,.2,1v1H24.6V15a2.48,2.48,0,0,0-.1-.9,1.69,1.69,0,0,0-.9-.2H22.5v1.8H21.2V10.8h2.7a3.64,3.64,0,0,1,1.5.2,1.16,1.16,0,0,1,.6,1.1,1.22,1.22,0,0,1-.8,1.3Zm2.1,2H26.4v-5h1.2Zm.3-2.7c0-1,.2-1.5.8-1.9.3-.5,1-.6,1.7-.6h1.1v1.3H30.5a1.44,1.44,0,0,0-.9.2,1.5,1.5,0,0,0-.2,1,2.68,2.68,0,0,0,.2,1.1c.1.2.5.2.8.2h.3l1.7-3.9h1.8L36,14.8V10.5h1.8v.1l1.7,3.2V10.7h1.2v5H39v-.1l-1.9-3.5v3.5H34.7v-.1l-.5-1H32.1l-.5,1.1H30.3a2.7,2.7,0,0,1-1.7-.6C28.1,14.7,28,14.1,28,13.1Zm.1,7.2H26.9v1h1.2a.9.9,0,0,0,.5-.1c.2-.1.2-.2.2-.5s-.1-.2-.2-.3-.26-.1-.46-.1Z"/></svg>