<svg id="图层_1" data-name="图层 1" xmlns="http://www.w3.org/2000/svg" viewBox="0 0 46.08 34"><defs><style>.cls-1{fill:#fff;stroke:#d1d1d3;stroke-miterlimit:10;stroke-width:0.75px;}.cls-2{fill:#ff6d00;}</style></defs><title>画板 1</title><path class="cls-1" d="M45.64,29.2a4.35,4.35,0,0,1-4.3,4.4H4.74a4.35,4.35,0,0,1-4.3-4.4h0V4.8A4.35,4.35,0,0,1,4.74.4h36.6a4.35,4.35,0,0,1,4.3,4.4h0Z"/><path class="cls-2" d="M45.34,29.1A4.25,4.25,0,0,1,41,33.3H14.24s25.3-4,31.1-15.7ZM20.84,17.6a3.3,3.3,0,0,0,6.6,0,3.21,3.21,0,0,0-3.12-3.3h-.18a3.27,3.27,0,0,0-3.3,3.24S20.84,17.58,20.84,17.6Z"/><path d="M9,13.3h1.2v6.6H9Zm6.6,3.3a3.21,3.21,0,0,0,3.12,3.3h.18a4,4,0,0,0,1.5-.3V18.2a2.13,2.13,0,0,1-1.5.7,2.08,2.08,0,0,1-2.1-2.06s0-.1,0-.14a2.14,2.14,0,0,1,2.08-2.2h0a2.08,2.08,0,0,1,1.5.7V13.8a4.19,4.19,0,0,0-1.5-.4,3.18,3.18,0,0,0-3.26,3.1s0,.07,0,.1Zm14.6,1-1.8-4.3H27.2l2.7,6.6h.7l2.7-6.6H32Zm3.7,2.3h3.5V18.8H35.1V17h2.2V15.9H35.1V14.4h2.3V13.3H33.9Zm8.3-4.6a2,2,0,0,0-2-2H38.1v6.6h1.2V17.3h.1l1.8,2.6h1.5l-2-2.7A1.93,1.93,0,0,0,42.2,15.3Zm-2.5,1.1h-.3v-2h.3c.8,0,1.2.3,1.2,1s-.36,1-1.16,1ZM5.24,13.3H3.34v6.6h1.8a3.29,3.29,0,0,0,3.4-3.18s0-.08,0-.12a3.1,3.1,0,0,0-2.89-3.3Zm-.4,5.5h-.3V14.4h.4a2.12,2.12,0,0,1,2.3,2.2,2.12,2.12,0,0,1-2.4,2.2Zm8.7-3c-.8-.3-1-.4-1-.8a.81.81,0,0,1,.9-.7,1.22,1.22,0,0,1,1,.5l.7-.9a2.56,2.56,0,0,0-1.9-.8,1.92,1.92,0,0,0-2,1.84s0,0,0,.06c0,.9.4,1.3,1.5,1.8.7.2,1.2.4,1.2,1a.92.92,0,0,1-.94.9h-.06a1.29,1.29,0,0,1-1.3-.9l-.8.8A2.23,2.23,0,0,0,13,19.8a2.08,2.08,0,0,0,2.2-2s0-.1,0-.14c0-.9-.4-1.3-1.7-1.9Z"/></svg>