<svg id="图层_1" data-name="图层 1" xmlns="http://www.w3.org/2000/svg" viewBox="0 0 46.08 34"><defs><style>.cls-1{fill:#1668b2;}.cls-2{fill:#fff;}</style></defs><title>画板 1</title><path class="cls-1" d="M42,34H4a4,4,0,0,1-4-4V4A4,4,0,0,1,4,0H42a4,4,0,0,1,4,4V30A4,4,0,0,1,42,34Z"/><path class="cls-2" d="M25.14,29.2c6.4.1,12.4-5.2,12.4-11.7a10.3,10.3,0,0,0-1-4.6A15.1,15.1,0,0,0,33.84,9a11.23,11.23,0,0,0-4-2.5,12.57,12.57,0,0,0-4.7-.8h-5.5a11.3,11.3,0,0,0-4.5.9,12,12,0,0,0-3.8,2.5,10.48,10.48,0,0,0-2.5,3.8,11.7,11.7,0,0,0,0,9,12,12,0,0,0,2.5,3.8,10.48,10.48,0,0,0,3.8,2.5,11.3,11.3,0,0,0,4.5.9Z"/><path class="cls-1" d="M22,23.8V11a7.19,7.19,0,0,1,3.2,2.5,6.82,6.82,0,0,1,1.2,3.8,6.21,6.21,0,0,1-1.2,3.9A6.23,6.23,0,0,1,22,23.8Zm-9.4-6.4a6.36,6.36,0,0,1,1.2-3.8A6.56,6.56,0,0,1,17,11.1V23.9a7.19,7.19,0,0,1-3.2-2.5,7.21,7.21,0,0,1-1.16-4ZM19.5,6.7a10.58,10.58,0,0,0-6,1.8,10.93,10.93,0,0,0-4,4.8,12.34,12.34,0,0,0-.7,6.3,9.86,9.86,0,0,0,2.9,5.5A10.91,10.91,0,0,0,17.2,28a10.61,10.61,0,0,0,6.3-.7,9.93,9.93,0,0,0,4.8-4,10.58,10.58,0,0,0,1.8-6A11.28,11.28,0,0,0,27,9.7a10.58,10.58,0,0,0-7.46-3Z"/></svg>