<?xml version="1.0" encoding="UTF-8" standalone="no"?>
<svg width="16px" height="16px" viewBox="0 0 16 16" version="1.1" xmlns="http://www.w3.org/2000/svg" xmlns:xlink="http://www.w3.org/1999/xlink" xmlns:sketch="http://www.bohemiancoding.com/sketch/ns">
    <!-- Generator: Sketch 3.2.2 (9983) - http://www.bohemiancoding.com/sketch -->
    <title>gamma-black</title>
    <desc>Created with Sketch.</desc>
    <defs>
        <linearGradient x1="60.0119231%" y1="-2.28317149%" x2="60.0119231%" y2="97.3736075%" id="linearGradient-1">
            <stop stop-color="#666666" offset="0%"></stop>
            <stop stop-color="#3F3F3F" offset="100%"></stop>
        </linearGradient>
        <filter x="-50%" y="-50%" width="200%" height="200%" filterUnits="objectBoundingBox" id="filter-2">
            <feOffset dx="0" dy="1" in="SourceAlpha" result="shadowOffsetOuter1"></feOffset>
            <feGaussianBlur stdDeviation="0" in="shadowOffsetOuter1" result="shadowBlurOuter1"></feGaussianBlur>
            <feColorMatrix values="0 0 0 0 1   0 0 0 0 1   0 0 0 0 1  0 0 0 0.7 0" in="shadowBlurOuter1" type="matrix" result="shadowMatrixOuter1"></feColorMatrix>
            <feOffset dx="0" dy="1" in="SourceAlpha" result="shadowOffsetInner1"></feOffset>
            <feGaussianBlur stdDeviation="0" in="shadowOffsetInner1" result="shadowBlurInner1"></feGaussianBlur>
            <feComposite in="shadowBlurInner1" in2="SourceAlpha" operator="arithmetic" k2="-1" k3="1" result="shadowInnerInner1"></feComposite>
            <feColorMatrix values="0 0 0 0 0   0 0 0 0 0   0 0 0 0 0  0 0 0 0.613768116 0" in="shadowInnerInner1" type="matrix" result="shadowMatrixInner1"></feColorMatrix>
            <feMerge>
                <feMergeNode in="shadowMatrixOuter1"></feMergeNode>
                <feMergeNode in="SourceGraphic"></feMergeNode>
                <feMergeNode in="shadowMatrixInner1"></feMergeNode>
            </feMerge>
        </filter>
        <path d="M0,10 L0,12 L1,12 L1,10 L0,10 Z M2,8 L2,12 L3,12 L3,8 L2,8 Z M4,4 L4,12 L5,12 L5,4 L4,4 Z M6,0 L6,12 L7,12 L7,0 L6,0 Z M8,4 L8,12 L9,12 L9,4 L8,4 Z M10,8 L10,12 L11,12 L11,8 L10,8 Z M12,11 L12,12 L13,12 L13,11 L12,11 Z" id="path-3"></path>
    </defs>
    <g id="icons-moono" stroke="none" stroke-width="1" fill="none" fill-rule="evenodd" sketch:type="MSPage">
        <g id="gamma" sketch:type="MSArtboardGroup" filter="url(#filter-2)">
            <g sketch:type="MSLayerGroup" transform="translate(2.000000, 2.000000)" id="Rectangle-180">
                <g>
                    <use fill="url(#linearGradient-1)" fill-rule="evenodd" sketch:type="MSShapeGroup" xlink:href="#path-3"></use>
                    <use fill="none" xlink:href="#path-3"></use>
                    <use fill="none" xlink:href="#path-3"></use>
                </g>
            </g>
        </g>
    </g>
</svg>