<?xml version="1.0" encoding="UTF-8" standalone="no"?>
<svg width="16px" height="16px" viewBox="0 0 16 16" version="1.1" xmlns="http://www.w3.org/2000/svg" xmlns:xlink="http://www.w3.org/1999/xlink" xmlns:sketch="http://www.bohemiancoding.com/sketch/ns">
    <!-- Generator: Sketch 3.2.2 (9983) - http://www.bohemiancoding.com/sketch -->
    <title>reset-black</title>
    <desc>Created with Sketch.</desc>
    <defs>
        <linearGradient x1="60.0119231%" y1="-2.28317149%" x2="60.0119231%" y2="97.3736075%" id="linearGradient-1">
            <stop stop-color="#666666" offset="0%"></stop>
            <stop stop-color="#3F3F3F" offset="100%"></stop>
        </linearGradient>
        <filter x="-50%" y="-50%" width="200%" height="200%" filterUnits="objectBoundingBox" id="filter-2">
            <feOffset dx="0" dy="1" in="SourceAlpha" result="shadowOffsetOuter1"></feOffset>
            <feGaussianBlur stdDeviation="0" in="shadowOffsetOuter1" result="shadowBlurOuter1"></feGaussianBlur>
            <feColorMatrix values="0 0 0 0 1   0 0 0 0 1   0 0 0 0 1  0 0 0 0.7 0" in="shadowBlurOuter1" type="matrix" result="shadowMatrixOuter1"></feColorMatrix>
            <feOffset dx="0" dy="1" in="SourceAlpha" result="shadowOffsetInner1"></feOffset>
            <feGaussianBlur stdDeviation="0" in="shadowOffsetInner1" result="shadowBlurInner1"></feGaussianBlur>
            <feComposite in="shadowBlurInner1" in2="SourceAlpha" operator="arithmetic" k2="-1" k3="1" result="shadowInnerInner1"></feComposite>
            <feColorMatrix values="0 0 0 0 0   0 0 0 0 0   0 0 0 0 0  0 0 0 0.613768116 0" in="shadowInnerInner1" type="matrix" result="shadowMatrixInner1"></feColorMatrix>
            <feMerge>
                <feMergeNode in="shadowMatrixOuter1"></feMergeNode>
                <feMergeNode in="SourceGraphic"></feMergeNode>
                <feMergeNode in="shadowMatrixInner1"></feMergeNode>
            </feMerge>
        </filter>
        <path d="M6.98777693,2.00001044 C6.99185047,2.00000348 6.99592483,2 7,2 C10.8659932,2 14,5.13400675 14,9 C14,12.8659932 10.8659932,16 7,16 C3.13400675,16 0,12.8659932 0,9 C0,7.44551746 0.506698292,6.00938065 1.36394166,4.84774279 L3.31624121,7.43853179 C3.11262988,7.9182828 3,8.44598834 3,9 C3,11.209139 4.790861,13 7,13 C9.209139,13 11,11.209139 11,9 C11,6.790861 9.209139,5 7,5 C6.99592422,5 6.99184986,5.0000061 6.98777693,5.00001828 L6.98777693,6.0312499 L2,2.95594168 L6.98777693,0.344715973 L6.98777693,2.00001044 Z" id="path-3"></path>
    </defs>
    <g id="icons-moono" stroke="none" stroke-width="1" fill="none" fill-rule="evenodd" sketch:type="MSPage">
        <g id="reset" sketch:type="MSArtboardGroup" filter="url(#filter-2)">
            <g sketch:type="MSLayerGroup" transform="translate(1.000000, -1.000000)" id="Oval-9">
                <g>
                    <use fill="url(#linearGradient-1)" fill-rule="evenodd" sketch:type="MSShapeGroup" xlink:href="#path-3"></use>
                    <use fill="none" xlink:href="#path-3"></use>
                    <use fill="none" xlink:href="#path-3"></use>
                </g>
            </g>
        </g>
    </g>
</svg>