<?xml version="1.0" encoding="UTF-8" standalone="no"?>
<svg width="16px" height="16px" viewBox="0 0 16 16" version="1.1" xmlns="http://www.w3.org/2000/svg" xmlns:xlink="http://www.w3.org/1999/xlink" xmlns:sketch="http://www.bohemiancoding.com/sketch/ns">
    <!-- Generator: Sketch 3.2.2 (9983) - http://www.bohemiancoding.com/sketch -->
    <title>save-black</title>
    <desc>Created with Sketch.</desc>
    <defs>
        <linearGradient x1="60.0119231%" y1="-2.28317149%" x2="60.0119231%" y2="97.3736075%" id="linearGradient-1">
            <stop stop-color="#666666" offset="0%"></stop>
            <stop stop-color="#3F3F3F" offset="100%"></stop>
        </linearGradient>
        <filter x="-50%" y="-50%" width="200%" height="200%" filterUnits="objectBoundingBox" id="filter-2">
            <feOffset dx="0" dy="1" in="SourceAlpha" result="shadowOffsetOuter1"></feOffset>
            <feGaussianBlur stdDeviation="0" in="shadowOffsetOuter1" result="shadowBlurOuter1"></feGaussianBlur>
            <feColorMatrix values="0 0 0 0 1   0 0 0 0 1   0 0 0 0 1  0 0 0 0.7 0" in="shadowBlurOuter1" type="matrix" result="shadowMatrixOuter1"></feColorMatrix>
            <feOffset dx="0" dy="1" in="SourceAlpha" result="shadowOffsetInner1"></feOffset>
            <feGaussianBlur stdDeviation="0" in="shadowOffsetInner1" result="shadowBlurInner1"></feGaussianBlur>
            <feComposite in="shadowBlurInner1" in2="SourceAlpha" operator="arithmetic" k2="-1" k3="1" result="shadowInnerInner1"></feComposite>
            <feColorMatrix values="0 0 0 0 0   0 0 0 0 0   0 0 0 0 0  0 0 0 0.613768116 0" in="shadowInnerInner1" type="matrix" result="shadowMatrixInner1"></feColorMatrix>
            <feMerge>
                <feMergeNode in="shadowMatrixOuter1"></feMergeNode>
                <feMergeNode in="SourceGraphic"></feMergeNode>
                <feMergeNode in="shadowMatrixInner1"></feMergeNode>
            </feMerge>
        </filter>
        <path d="M12.1676264,13.9926099 C12.1104492,13.9975031 12.0525872,14 11.9941413,14 L2.00585866,14 C0.897060126,14 0,13.1019465 0,11.9941413 L0,2.00585866 C0,0.897060126 0.898053512,0 2.00585866,0 L11.9941413,0 C13.1029399,0 14,0.898053512 14,2.00585866 L14,11.9941413 C14,12.05259 13.9975046,12.1104502 13.9926145,12.1676218 L12.1676264,13.9926099 L12.1676264,13.9926099 Z M3,9 L3,13 L11,13 L11,9 L3,9 Z M2.16666667,2 L2.16666667,7 L12,7 L12,2 L2.16666667,2 Z M7,10 L7,13 L9,13 L9,10 L7,10 Z" id="path-3"></path>
    </defs>
    <g id="icons-moono" stroke="none" stroke-width="1" fill="none" fill-rule="evenodd" sketch:type="MSPage">
        <g id="save" sketch:type="MSArtboardGroup" filter="url(#filter-2)">
            <g sketch:type="MSLayerGroup" transform="translate(8.000000, 8.000000) scale(-1, 1) translate(-8.000000, -8.000000) translate(1.000000, 1.000000)" id="Rectangle-153">
                <g>
                    <use fill="url(#linearGradient-1)" fill-rule="evenodd" sketch:type="MSShapeGroup" xlink:href="#path-3"></use>
                    <use fill="none" xlink:href="#path-3"></use>
                    <use fill="none" xlink:href="#path-3"></use>
                </g>
            </g>
        </g>
    </g>
</svg>