<svg t="1758125040276" class="icon" viewBox="0 0 1024 1024" version="1.1" xmlns="http://www.w3.org/2000/svg" p-id="7449" width="24" height="24"><path d="M511.3 615.2c-152 0-275.7-123.7-275.7-275.7S359.3 63.9 511.3 63.9 787 187.5 787 339.5 663.3 615.2 511.3 615.2z m0-454.8c-98.8 0-179.2 80.4-179.2 179.2s80.4 179.2 179.2 179.2 179.2-80.4 179.2-179.2-80.4-179.2-179.2-179.2z" fill="#111111" p-id="7450"></path><path d="M852.5 956.3c-26.6 0-48.2-21.6-48.2-48.2 0-161.5-131.4-292.9-292.9-292.9-161.5 0-292.9 131.4-292.9 292.9 0 26.6-21.6 48.2-48.2 48.2s-48.2-21.6-48.2-48.2c0-214.7 174.7-389.4 389.4-389.4s389.4 174.7 389.4 389.4c-0.2 26.6-21.8 48.2-48.4 48.2z" fill="#111111" p-id="7451"></path></svg>