<svg t="1758125083185" class="icon" viewBox="0 0 1024 1024" version="1.1" xmlns="http://www.w3.org/2000/svg" p-id="7614" width="24" height="24"><path d="M637.5 956.3H385.1C225 956.3 94.7 826 94.7 665.9c0-1.2 0-2.4 0.2-3.5l20.3-254.6c1.8-23.1 21.1-41 44.4-41h703.6c23.2 0 42.5 17.8 44.4 41l20.3 254.6c0.1 1.2 0.2 2.4 0.2 3.5C928 826 797.7 956.3 637.5 956.3zM183.7 667.6c0.9 110.3 90.9 199.7 201.4 199.7h252.4C748 867.3 838 777.9 839 667.6l-17-211.8H200.6l-16.9 211.8z" fill="#111111" p-id="7615"></path><path d="M713.9 545.6c-24.6 0-44.5-19.9-44.5-44.5v-188c0-87.1-70.9-158-158-158s-158 70.9-158 158v188.1c0 24.6-19.9 44.5-44.5 44.5s-44.5-19.9-44.5-44.5V313.1C264.3 176.8 375.1 66 511.3 66s247.1 110.8 247.1 247.1v188.1c0 24.5-19.9 44.4-44.5 44.4z" fill="#111111" p-id="7616"></path></svg>