<?xml version="1.0" standalone="no"?><!DOCTYPE svg PUBLIC "-//W3C//DTD SVG 1.1//EN" "http://www.w3.org/Graphics/SVG/1.1/DTD/svg11.dtd"><svg t="1758344080338" class="icon" viewBox="0 0 1024 1024" version="1.1" xmlns="http://www.w3.org/2000/svg" p-id="9130" xmlns:xlink="http://www.w3.org/1999/xlink" width="22" height="22"><path d="M883.2 224.5H144.3c-24.7 0-44.8-20.1-44.8-44.8s20.1-44.8 44.8-44.8h738.9c24.7 0 44.8 20.1 44.8 44.8s-20.1 44.8-44.8 44.8zM883.2 549.2H144.3c-24.7 0-44.8-20.1-44.8-44.8 0-24.7 20.1-44.8 44.8-44.8h738.9c24.7 0 44.8 20.1 44.8 44.8 0 24.7-20.1 44.8-44.8 44.8zM883.2 873.8H144.3c-24.7 0-44.8-20.1-44.8-44.8s20.1-44.8 44.8-44.8h738.9c24.7 0 44.8 20.1 44.8 44.8s-20.1 44.8-44.8 44.8z" fill="#111111" p-id="9131"></path></svg>