<svg id="图层_1" data-name="图层 1" xmlns="http://www.w3.org/2000/svg" viewBox="0 0 46.08 34"><defs><style>.cls-1{fill:#fff;stroke:#d1d1d3;stroke-miterlimit:10;stroke-width:0.75px;}.cls-2{fill:#5fa14f;}.cls-3{fill:#386caa;}.cls-4{fill:#b92a3b;}</style></defs><title>画板 1</title><path class="cls-1" d="M41.8,33.6H4.4A3.9,3.9,0,0,1,.5,29.7V4.3A4,4,0,0,1,4.4.4H41.8a3.9,3.9,0,0,1,3.9,3.9h0V29.6a3.93,3.93,0,0,1-3.86,4Z"/><path class="cls-2" d="M33.1,20.3h3.1a1.23,1.23,0,0,0,.8-.4,1.14,1.14,0,0,0,.3-.8c0-.7-.3-1.2-1-1.2H33.2A18.48,18.48,0,0,0,33.1,20.3Z"/><path class="cls-2" d="M35.5,2.6a5.23,5.23,0,0,0-1.8.3,8.64,8.64,0,0,0-1.6,1,3.36,3.36,0,0,0-1,1.6,5.82,5.82,0,0,0-.3,1.9v5h7.3c1.6,0,2.7.8,2.7,2.2a2,2,0,0,1-.1.8,1.79,1.79,0,0,1-.5.7c-.2.2-.5.3-.7.5a2.2,2.2,0,0,1-.8.1v.2c1.6,0,2.7.8,2.7,2.2s-1.4,2.4-3.1,2.4H30.9v9.9H38a5.82,5.82,0,0,0,1.9-.3,8.64,8.64,0,0,0,1.6-1,3.91,3.91,0,0,0,1-1.6,5.82,5.82,0,0,0,.3-1.9V2.6Z"/><path class="cls-2" d="M36.7,15a1.14,1.14,0,0,0-.3-.8,1.27,1.27,0,0,0-.7-.4H33.1v2.4h2.6a1.23,1.23,0,0,0,.8-.4A1,1,0,0,0,36.7,15Z"/><path class="cls-3" d="M8.9,2.6A5.82,5.82,0,0,0,7,2.9a5.37,5.37,0,0,0-1.6,1,3.91,3.91,0,0,0-1,1.6,5.82,5.82,0,0,0-.3,1.9V19.1a10.18,10.18,0,0,0,4.2,1.2,3.4,3.4,0,0,0,1-.1,2.18,2.18,0,0,0,.8-.5,1.56,1.56,0,0,0,.6-.8,3.55,3.55,0,0,0,.2-1V12.4h4.2v5.5c0,2.1-1.4,4-5.9,4a27.34,27.34,0,0,1-5-.5v10h7a5.82,5.82,0,0,0,1.9-.3,8.64,8.64,0,0,0,1.6-1,3.91,3.91,0,0,0,1-1.6,4,4,0,0,0,.3-1.9V2.6Z"/><path class="cls-4" d="M22.2,2.6a5.82,5.82,0,0,0-1.9.3,8.64,8.64,0,0,0-1.6,1,3.36,3.36,0,0,0-1,1.6,4,4,0,0,0-.3,1.9v6.4c1.2-1,3.3-1.8,6.7-1.6,1.9.2,3.8.5,3.8.5v2.1a6.63,6.63,0,0,0-3.7-1c-2.6-.2-4.2,1-4.2,3.3s1.6,3.7,4.2,3.3a8.2,8.2,0,0,0,3.7-1v2.1a15.83,15.83,0,0,1-3.8.5c-3.3.2-5.5-.5-6.7-1.6v11h7.1a5.82,5.82,0,0,0,1.9-.3,5.37,5.37,0,0,0,1.6-1,3.91,3.91,0,0,0,1-1.6,4,4,0,0,0,.3-1.9V2.6Z"/></svg>