<svg id="图层_1" data-name="图层 1" xmlns="http://www.w3.org/2000/svg" viewBox="0 0 46.08 34"><defs><style>.cls-1{fill:#0a2540;}.cls-2{fill:#ee6f2d;}.cls-3{fill:#d82f22;}.cls-4{fill:#ffb039;}</style></defs><title>画板 1</title><path class="cls-1" d="M42,34H4a4,4,0,0,1-4-4V4A4,4,0,0,1,4,0H42a4,4,0,0,1,4,4V30A4,4,0,0,1,42,34Z"/><path class="cls-2" d="M27.44,25.1h-8.9V9.2h8.9Z"/><path class="cls-3" d="M19.24,17.4A11.16,11.16,0,0,1,23,9.2a10.05,10.05,0,1,0-6,18.1A8.58,8.58,0,0,0,23.2,25,9,9,0,0,1,19.24,17.4Z"/><path class="cls-4" d="M39.44,17.2a10,10,0,0,1-10,10,8.93,8.93,0,0,1-6.2-2.2A9.57,9.57,0,0,0,27,17.2,11.72,11.72,0,0,0,23.24,9c2-1.2,3.8-2.2,6.2-2.2A10.73,10.73,0,0,1,39.44,17.2Z"/></svg>