<svg id="图层_1" data-name="图层 1" xmlns="http://www.w3.org/2000/svg" viewBox="0 0 45.95 33.85"><defs><style>.cls-1{fill:#fff;stroke:#d1d1d3;stroke-miterlimit:10;stroke-width:0.75px;}.cls-2{fill:#151d6b;}</style></defs><title>画板 2</title><path class="cls-1" d="M41.68,33.47H4.28a3.9,3.9,0,0,1-3.9-3.9V4.27A4,4,0,0,1,4.28.38h37.4a3.9,3.9,0,0,1,3.9,3.9h0v25.3a3.84,3.84,0,0,1-3.78,3.9Z"/><path class="cls-2" d="M17.88,11.48l-4.8,11.45H9.93l-2.4-9.1a1.26,1.26,0,0,0-.7-1,8.24,8.24,0,0,0-2.9-.9l.1-.4H9a1.39,1.39,0,0,1,1.4,1.2l1.2,6.6,3.1-7.8h3.1Zm12.3,7.7c0-3-4.1-3.2-4.1-4.5,0-.4.4-.8,1.2-.9a5.14,5.14,0,0,1,2.9.5l.5-2.4a9.39,9.39,0,0,0-2.8-.5c-2.9,0-5,1.5-5,3.8,0,1.7,1.5,2.5,2.6,3.1s1.5.9,1.5,1.4c0,.8-.9,1.1-1.8,1.1a6.22,6.22,0,0,1-3-.7l-.5,2.5a9.26,9.26,0,0,0,3.3.6C28.08,23.07,30.08,21.57,30.18,19.18Zm7.7,3.8h2.7l-2.4-11.4h-2.5a1.24,1.24,0,0,0-1.2.8l-4.4,10.55h3.1l.6-1.7h3.8l.3,1.7Zm-3.3-4,1.5-4.3.86,4.3Zm-12.5-7.4-2.4,11.4h-3l2.4-11.4Z"/></svg>