<svg id="图层_1" data-name="图层 1" xmlns="http://www.w3.org/2000/svg" viewBox="0 0 851.19 155.73"><defs><style>.cls-1{fill:#fd560f;}</style></defs><path class="cls-1" d="M12.23,34.56H60.39q14.3,0,21.32,1.2a31.28,31.28,0,0,1,12.58,5,30.92,30.92,0,0,1,9.24,10.06,27.26,27.26,0,0,1,3.7,14.1A28.55,28.55,0,0,1,90.3,91q11,3.21,16.93,10.93a29,29,0,0,1,5.92,18.16,35.74,35.74,0,0,1-3.83,16A32.06,32.06,0,0,1,98.89,148.5a34.41,34.41,0,0,1-16.31,5.71q-6.09.66-29.34.83h-41ZM36.56,54.62V82.47H52.5q14.22,0,17.67-.41A16.1,16.1,0,0,0,80,77.75a12.73,12.73,0,0,0,3.57-9.41,13.18,13.18,0,0,0-3.08-9.08Q77.41,55.77,71.32,55q-3.61-.42-20.79-.41Zm0,47.9v32.22H59.07q13.16,0,16.69-.74a15.07,15.07,0,0,0,8.83-4.81Q88,125.37,88,119a15.72,15.72,0,0,0-2.63-9.2,14.87,14.87,0,0,0-7.6-5.51q-5-1.73-21.57-1.73Z" transform="translate(-12.23 -32.51)"/><path class="cls-1" d="M184.06,127.26l23,3.86q-4.42,12.66-14,19.27T169.11,157q-22.77,0-33.69-14.88-8.64-11.91-8.63-30.07,0-21.7,11.34-34t28.68-12.29q19.47,0,30.73,12.86t10.77,39.41H150.45q.26,10.27,5.59,16a17.47,17.47,0,0,0,13.31,5.71,14.18,14.18,0,0,0,9.13-3Q182.17,133.83,184.06,127.26Zm1.32-23.34q-.25-10-5.18-15.24a15.87,15.87,0,0,0-12-5.22A16,16,0,0,0,155.71,89q-4.92,5.5-4.84,15Z" transform="translate(-12.23 -32.51)"/><path class="cls-1" d="M227.13,55.93V34.56h1.72a21.37,21.37,0,0,1,21.37,21.37H227.13Zm0,99.11V67.76h23.09V155Z" transform="translate(-12.23 -32.51)"/><path class="cls-1" d="M273.06,155V34.56h0a23.1,23.1,0,0,1,23.09,23.1V98.5l27-30.74h28.43L321.79,99.65l32,55.39h-24.9l-21.94-39.2L296.15,127.1V155Z" transform="translate(-12.23 -32.51)"/><path class="cls-1" d="M418,127.26l23,3.86q-4.44,12.66-14,19.27T403.07,157q-22.77,0-33.7-14.88-8.62-11.91-8.62-30.07,0-21.7,11.33-34t28.68-12.29q19.49,0,30.74,12.86t10.76,39.41H384.41q.25,10.27,5.59,16a17.47,17.47,0,0,0,13.31,5.71,14.13,14.13,0,0,0,9.12-3Q416.14,133.83,418,127.26Zm1.32-23.34q-.25-10-5.18-15.24a16.66,16.66,0,0,0-24.49.29q-4.94,5.5-4.85,15Z" transform="translate(-12.23 -32.51)"/><path class="cls-1" d="M455.08,115.84l23.67-2.3q2.13,11.91,8.67,17.5t17.63,5.59q11.74,0,17.71-5t6-11.63a11,11,0,0,0-2.5-7.27q-2.51-3-8.75-5.22-4.28-1.49-19.48-5.26-19.56-4.84-27.45-11.92-11.08-9.94-11.09-24.24a31,31,0,0,1,5.22-17.22,32.7,32.7,0,0,1,15-12.2q9.81-4.19,23.7-4.19,22.68,0,34.15,9.94t12,26.55l-24.33,1.07q-1.56-9.28-6.69-13.36t-15.41-4.07q-10.61,0-16.6,4.36a8.75,8.75,0,0,0-3.86,7.48,9.24,9.24,0,0,0,3.61,7.31q4.6,3.87,22.35,8t26.26,8.67a33.82,33.82,0,0,1,13.31,12.25Q553,108.53,553,120a35.52,35.52,0,0,1-5.75,19.39A34.49,34.49,0,0,1,531,152.78q-10.53,4.4-26.22,4.39-22.85,0-35.09-10.56T455.08,115.84Z" transform="translate(-12.23 -32.51)"/><path class="cls-1" d="M596.35,57.66v21.2q11.16-13.06,26.7-13.07a33.92,33.92,0,0,1,14.38,3,23.47,23.47,0,0,1,9.66,7.56,27.62,27.62,0,0,1,4.44,10.19q1.19,5.59,1.19,17.34V155H629.63v-46.1q0-13.72-1.32-17.43a11.39,11.39,0,0,0-4.64-5.87,15,15,0,0,0-8.34-2.18,19.13,19.13,0,0,0-10.27,2.79,16.17,16.17,0,0,0-6.62,8.43q-2.1,5.63-2.09,16.64V155h-23.1V34.56h0A23.1,23.1,0,0,1,596.35,57.66Z" transform="translate(-12.23 -32.51)"/><path class="cls-1" d="M670.8,110.17a47.22,47.22,0,0,1,5.67-22.27,38.9,38.9,0,0,1,16.06-16.44,47.69,47.69,0,0,1,23.22-5.67q19.8,0,32.46,12.86t12.65,32.5q0,19.81-12.78,32.83t-32.17,13A50.6,50.6,0,0,1,693,151.58a37.14,37.14,0,0,1-16.56-15.9Q670.8,125.21,670.8,110.17Zm23.66,1.23q0,13,6.17,19.89a20.15,20.15,0,0,0,30.36,0q6.12-6.9,6.13-20,0-12.83-6.13-19.73a20.15,20.15,0,0,0-30.36,0Q694.46,98.43,694.46,111.4Z" transform="translate(-12.23 -32.51)"/><path class="cls-1" d="M778.29,67.76H787a12.82,12.82,0,0,1,12.82,12.82h0A32.17,32.17,0,0,1,811.16,69.9,31.23,31.23,0,0,1,827,65.79q15.19,0,25.8,11.92t10.6,33.2q0,21.86-10.68,34T826.85,157a29.4,29.4,0,0,1-13.11-2.88q-5.87-2.88-12.36-9.86v44H778.29Zm22.84,42.16q0,14.72,5.83,21.74t14.22,7a16.71,16.71,0,0,0,13.4-6.45q5.34-6.45,5.34-21.16,0-13.72-5.51-20.38A17,17,0,0,0,820.77,84a17.69,17.69,0,0,0-14,6.53Q801.13,97.1,801.13,109.92Z" transform="translate(-12.23 -32.51)"/></svg>