<?xml version="1.0" encoding="UTF-8"?>
<svg width="227px" height="147px" viewBox="0 0 227 147" version="1.1" xmlns="http://www.w3.org/2000/svg" xmlns:xlink="http://www.w3.org/1999/xlink">
    <title>编组 2</title>
    <defs>
        <linearGradient x1="50%" y1="0%" x2="50%" y2="100%" id="linearGradient-1">
            <stop stop-color="#F2F2F2" offset="0%"></stop>
            <stop stop-color="#F8D0BF" offset="100%"></stop>
        </linearGradient>
        <linearGradient x1="25.340636%" y1="7.04697342%" x2="74.9309%" y2="94.4139559%" id="linearGradient-2">
            <stop stop-color="#FC6076" offset="0%"></stop>
            <stop stop-color="#FD560F" offset="100%"></stop>
        </linearGradient>
        <linearGradient x1="25.340636%" y1="7.04697342%" x2="74.9309%" y2="94.4139559%" id="linearGradient-3">
            <stop stop-color="#D8D8D8" offset="0%"></stop>
            <stop stop-color="#D8D8D8" offset="100%"></stop>
        </linearGradient>
        <linearGradient x1="42.0572498%" y1="9.97107567%" x2="56.2816045%" y2="93.2731395%" id="linearGradient-4">
            <stop stop-color="#FC6076" offset="0%"></stop>
            <stop stop-color="#FD560F" offset="100%"></stop>
        </linearGradient>
        <linearGradient x1="42.0572498%" y1="9.97107567%" x2="56.2816045%" y2="93.2731395%" id="linearGradient-5">
            <stop stop-color="#D8D8D8" offset="0%"></stop>
            <stop stop-color="#D8D8D8" offset="100%"></stop>
        </linearGradient>
        <linearGradient x1="22.0813754%" y1="1.8253596%" x2="67.8145713%" y2="105.83177%" id="linearGradient-6">
            <stop stop-color="#FC6076" offset="0%"></stop>
            <stop stop-color="#FD560F" offset="100%"></stop>
        </linearGradient>
        <linearGradient x1="22.0813754%" y1="1.8253596%" x2="67.8145713%" y2="105.83177%" id="linearGradient-7">
            <stop stop-color="#D8D8D8" offset="0%"></stop>
            <stop stop-color="#D8D8D8" offset="100%"></stop>
        </linearGradient>
        <linearGradient x1="25.355952%" y1="7.0325913%" x2="74.9413724%" y2="94.4130916%" id="linearGradient-8">
            <stop stop-color="#FC6076" offset="0%"></stop>
            <stop stop-color="#FD560F" offset="100%"></stop>
        </linearGradient>
        <linearGradient x1="25.355952%" y1="7.0325913%" x2="74.9413724%" y2="94.4130916%" id="linearGradient-9">
            <stop stop-color="#D8D8D8" offset="0%"></stop>
            <stop stop-color="#D8D8D8" offset="100%"></stop>
        </linearGradient>
        <linearGradient x1="-1.11095695%" y1="0.538793103%" x2="68.546044%" y2="117.564655%" id="linearGradient-10">
            <stop stop-color="#FC6076" offset="0%"></stop>
            <stop stop-color="#FD560F" offset="100%"></stop>
        </linearGradient>
        <linearGradient x1="-1.11095695%" y1="0.538793103%" x2="68.546044%" y2="117.564655%" id="linearGradient-11">
            <stop stop-color="#D8D8D8" offset="0%"></stop>
            <stop stop-color="#D8D8D8" offset="100%"></stop>
        </linearGradient>
        <linearGradient x1="-1.11097657%" y1="0.538793103%" x2="68.5472544%" y2="117.456897%" id="linearGradient-12">
            <stop stop-color="#FC6076" offset="0%"></stop>
            <stop stop-color="#FD560F" offset="100%"></stop>
        </linearGradient>
        <linearGradient x1="-1.11097657%" y1="0.538793103%" x2="68.5472544%" y2="117.456897%" id="linearGradient-13">
            <stop stop-color="#D8D8D8" offset="0%"></stop>
            <stop stop-color="#D8D8D8" offset="100%"></stop>
        </linearGradient>
        <linearGradient x1="-1.11099256%" y1="0.646551724%" x2="68.5482409%" y2="117.564655%" id="linearGradient-14">
            <stop stop-color="#FC6076" offset="0%"></stop>
            <stop stop-color="#FD560F" offset="100%"></stop>
        </linearGradient>
        <linearGradient x1="-1.11099256%" y1="0.646551724%" x2="68.5482409%" y2="117.564655%" id="linearGradient-15">
            <stop stop-color="#D8D8D8" offset="0%"></stop>
            <stop stop-color="#D8D8D8" offset="100%"></stop>
        </linearGradient>
        <linearGradient x1="26.0126639%" y1="25.0052768%" x2="66.1071323%" y2="79.1408946%" id="linearGradient-16">
            <stop stop-color="#FC6076" offset="0%"></stop>
            <stop stop-color="#FD560F" offset="100%"></stop>
        </linearGradient>
        <linearGradient x1="26.0126639%" y1="25.0052768%" x2="66.1071323%" y2="79.1408946%" id="linearGradient-17">
            <stop stop-color="#D8D8D8" offset="0%"></stop>
            <stop stop-color="#D8D8D8" offset="100%"></stop>
        </linearGradient>
        <linearGradient x1="21.37083%" y1="2.14399413%" x2="73.1697598%" y2="83.5914585%" id="linearGradient-18">
            <stop stop-color="#FC6076" offset="0%"></stop>
            <stop stop-color="#FD560F" offset="100%"></stop>
        </linearGradient>
        <linearGradient x1="21.37083%" y1="2.14399413%" x2="73.1697598%" y2="83.5914585%" id="linearGradient-19">
            <stop stop-color="#D8D8D8" offset="0%"></stop>
            <stop stop-color="#D8D8D8" offset="100%"></stop>
        </linearGradient>
        <linearGradient x1="30.6819825%" y1="6.46771405%" x2="69.3323438%" y2="94.5711983%" id="linearGradient-20">
            <stop stop-color="#FC6076" offset="0%"></stop>
            <stop stop-color="#FD560F" offset="100%"></stop>
        </linearGradient>
        <linearGradient x1="30.6819825%" y1="6.46771405%" x2="69.3323438%" y2="94.5711983%" id="linearGradient-21">
            <stop stop-color="#D8D8D8" offset="0%"></stop>
            <stop stop-color="#D8D8D8" offset="100%"></stop>
        </linearGradient>
        <linearGradient x1="23.610865%" y1="3.5373671%" x2="63.9305562%" y2="107.102095%" id="linearGradient-22">
            <stop stop-color="#FC6076" offset="0%"></stop>
            <stop stop-color="#FD560F" offset="100%"></stop>
        </linearGradient>
        <linearGradient x1="23.610865%" y1="3.5373671%" x2="63.9305562%" y2="107.102095%" id="linearGradient-23">
            <stop stop-color="#D8D8D8" offset="0%"></stop>
            <stop stop-color="#D8D8D8" offset="100%"></stop>
        </linearGradient>
        <linearGradient x1="24.1384715%" y1="6.21062597%" x2="75.3490546%" y2="93.784066%" id="linearGradient-24">
            <stop stop-color="#FC6076" offset="0%"></stop>
            <stop stop-color="#FD560F" offset="100%"></stop>
        </linearGradient>
        <linearGradient x1="24.1384715%" y1="6.21062597%" x2="75.3490546%" y2="93.784066%" id="linearGradient-25">
            <stop stop-color="#D8D8D8" offset="0%"></stop>
            <stop stop-color="#D8D8D8" offset="100%"></stop>
        </linearGradient>
        <linearGradient x1="23.5771215%" y1="1.57838778%" x2="59.5750745%" y2="83.5335882%" id="linearGradient-26">
            <stop stop-color="#FC6076" offset="0%"></stop>
            <stop stop-color="#FD560F" offset="100%"></stop>
        </linearGradient>
        <linearGradient x1="23.5771215%" y1="1.57838778%" x2="59.5750745%" y2="83.5335882%" id="linearGradient-27">
            <stop stop-color="#D8D8D8" offset="0%"></stop>
            <stop stop-color="#D8D8D8" offset="100%"></stop>
        </linearGradient>
    </defs>
    <g id="无记录" stroke="none" stroke-width="1" fill="none" fill-rule="evenodd">
        <g id="编组-2" fill-rule="nonzero">
            <path d="M177,96.688765 L177,97 C176.356952,96.2151359 175.70089,95.43696 175.051321,94.6587842 C174.778556,94.3340056 174.505744,94.0092222 174.232884,93.6844341 C173.07662,92.3175588 171.913935,90.9552107 170.744829,89.59739 C169.569099,88.2440678 168.393368,86.8907504 167.204618,85.5442072 C166.918842,85.2194287 166.633088,84.8946357 166.340813,84.5698571 C166.106849,84.2969178 165.852712,84.0434973 165.580737,83.8119226 C165.306389,83.5741091 164.991201,83.3927058 164.651909,83.277345 C164.261453,83.164622 163.84952,83.1599833 163.456816,83.2638874 C163.008496,83.3721788 162.579854,83.5413422 162.144719,83.6834138 C161.696399,83.8390337 161.254737,83.9878841 160.806587,84.1367251 C159.910112,84.4412671 159.020305,84.7458282 158.12382,85.0502795 C158.102006,85.0595122 158.077565,85.059338 158.055874,85.0497952 C158.034183,85.0402525 158.017021,85.0221232 158.008163,84.9993967 L158.006934,84.9960908 C157.996586,84.970154 157.997872,84.9407619 158.010444,84.915914 C158.023016,84.8910661 158.045565,84.8733481 158.071953,84.867582 C158.292853,84.7931568 158.520108,84.7187458 158.747529,84.6442298 C159.650356,84.3329948 160.546657,84.0285292 161.449625,83.7240732 C161.897776,83.5683673 162.345931,83.4195264 162.794251,83.2706759 C163.209928,83.1061939 163.648931,83.0147256 164.093361,83 C164.818914,83.054345 165.499341,83.3870607 166.003028,83.933791 C166.282311,84.2044669 166.535711,84.4886147 166.788964,84.7796132 C167.087731,85.1179369 167.386556,85.4562687 167.685439,85.7946084 C168.887028,87.16149 170.079991,88.5328448 171.264328,89.9086727 C172.453076,91.2890773 173.630982,92.6717208 174.798045,94.0566033 C174.882426,94.15813 174.966845,94.259644 175.051303,94.3611453 C175.707383,95.132418 176.350431,95.9106656 177,96.688765 Z" id="路径" fill="#FFFFFF"></path>
            <path d="M165.296707,85.6802649 C165.054794,85.3743338 164.732311,85.1391068 164.364102,85 L164,85.0125419 C166.858226,89.3783019 170.602859,93.1186653 175,96 C171.765536,92.5600957 168.531105,89.120184 165.296707,85.6802649 Z" id="路径" fill="#FFFFFF"></path>
            <path d="M226.900118,132.719109 L212.006211,52.7927108 C211.481445,50.0791531 209.153027,48.0906515 206.396582,48.0020097 C206.276133,48 206.155692,48 206.035261,48.0020097 L195.889222,48.3667849 L194.79727,48.4070203 L189.733606,48.5894173 L188.641653,48.6269731 L185.384526,48.7449999 L119.706823,51.108163 C119.607813,51.1135221 119.506092,51.1135221 119.407082,51.1108286 L104.689821,50.8023616 L99.2434418,50.689708 L99.0694697,50.6870284 L95.0495822,50.6011937 L60.0214723,49.8715781 L50.7345438,49.6757647 L46.155287,49.5818914 L45.0580109,49.557738 L39.8364391,49.4504295 L38.7418273,49.4262995 L33.3998012,49.3163114 L32.3051662,49.2921813 L26.4359184,49.1687815 L25.5152555,49.1500012 L20.2803019,49.0400365 L19.4533253,49.0239451 L19.3328988,49.0239451 C16.4635216,49.0356484 14.0199596,51.1176803 13.5466243,53.9541281 L0.076530539,136.892852 C-0.200317176,138.593275 0.281817963,140.329767 1.39524942,141.642444 C2.50868088,142.95512 4.14108073,143.711553 5.86013142,143.711412 L83.2174328,143.711412 C84.3560097,143.714554 85.4640153,144.080959 86.3808926,144.757533 L87.8475246,145.846574 C88.8583534,146.59224 90.0797009,146.996197 91.3348062,147 C106.275334,143.047856 121.983285,143.047856 136.923813,147 C138.479732,147.003969 139.972563,146.383858 141.069483,145.277901 C141.998139,144.347441 143.237439,143.794237 144.54873,143.724819 L221.445709,139.66372 C223.132719,139.575399 224.699629,138.761695 225.744522,137.431323 C226.789416,136.10095 227.210628,134.383352 226.900118,132.719095 L226.900118,132.719109 Z" id="路径" fill="#CCCCCC"></path>
            <path d="M204.993819,120.315946 C204.789182,125.932609 200.083063,130.320567 194.480034,130.118939 C190.034204,129.961424 184.728787,129.882666 178.970467,130.003119 C160.165812,130.406172 136.54099,133.000537 122.330049,142.330984 C120.543913,143.506265 118.433407,144.086661 116.299065,143.989525 C116.141935,143.980259 115.989428,143.970994 115.832299,143.957095 C113.619523,143.754319 111.534563,142.828107 109.898365,141.321035 C102.069638,134.140204 84.1153282,125.444449 43.0168262,124.83292 C42.8458328,124.83292 42.6794608,124.823655 42.5130888,124.814389 C39.8247085,124.644816 37.3138114,123.410979 35.5333814,121.384611 C33.7529514,119.358243 32.8490126,116.705539 33.0206427,114.010713 L37.0597848,49.749223 L37.665194,40.1176436 L38.7281261,23.2681707 C38.9505769,19.7465307 41.8629592,17.0033842 45.3830056,17 L45.4245985,17 L69.9090091,17.1436166 C80.2240723,17.6115288 88.7675819,18.9287867 95.5395379,21.0953902 C97.8527231,21.8144685 100.103203,22.7224569 102.26836,23.8102308 C105.225603,25.2474705 107.882562,27.2364366 110.097087,29.6707156 C111.476508,31.2257752 113.358068,32.2443133 115.411747,32.5476809 C115.730232,32.5953675 116.051176,32.6247565 116.373008,32.635704 C118.267027,32.7142559 120.135779,32.1780868 121.701533,31.1068818 C137.696351,20.3634318 170.291395,19.54806 188.29192,20.0113395 C193.50777,20.133283 197.779154,24.2046622 198.163348,29.4205447 L198.893513,39.0057961 L199.619079,48.5632508 L203.806108,103.800057 L204.970712,119.167036 C205,119.549302 205.006913,119.932839 204.993819,120.315946 Z" id="路径" fill="#F2F2F2"></path>
            <path d="M103,23.7518034 L103,55.6511214 C103,56.2850693 101.865361,56.8157072 100.336538,56.9612804 C100.323531,56.9605157 100.310491,56.9621078 100.298077,56.9659763 C100.043269,56.9847599 99.7740385,56.9988477 99.5,56.9988477 C98.6571023,57.0139593 97.8183336,56.8803313 97.0240385,56.6043912 C96.9519231,56.5762158 96.8798077,56.5433444 96.8076923,56.5151689 C96.7403846,56.4776016 96.6682692,56.4447303 96.6009615,56.407163 C96.2211538,56.1864552 96,55.9281801 96,55.6511214 L96,21 C98.4064079,21.7288672 100.747584,22.649218 103,23.7518034 L103,23.7518034 Z" id="路径" fill="url(#linearGradient-1)"></path>
            <rect id="矩形" fill="#E6E6E6" x="116" y="33" width="1" height="110"></rect>
            <g id="编组" transform="translate(77, 0)">
                <path d="M71.7010471,76.5188482 L71.5188482,76.7010471 C69.786911,78.4329843 66.9764398,78.4329843 65.2445026,76.7010471 L57.2989529,68.7554973 C55.5670157,67.0235602 55.5670157,64.213089 57.2989529,62.4811518 L57.4811518,62.2989529 C59.213089,60.5670157 62.0235602,60.5670157 63.7554973,62.2989529 L71.7010471,70.2445026 C73.4329843,71.9764397 73.4329843,74.7848167 71.7010471,76.5188482 Z" id="路径" fill="#DDDDDD"></path>
                <path d="M68.9187412,78 C67.6632222,78 66.4077031,77.5223109 65.452325,76.5669328 L57.4330672,68.5476749 C55.5223109,66.6369187 55.5223109,63.5277125 57.4330672,61.6169563 L57.6169563,61.4330672 C59.5277126,59.5223109 62.6369187,59.5223109 64.547675,61.4330672 L72.5669328,69.4523251 C74.4776891,71.3630813 74.4776891,74.4722875 72.5669328,76.3830437 L72.3830437,76.5669328 C71.4297792,77.5223109 70.1742602,78 68.9187412,78 L68.9187412,78 Z M61.0833724,60.8454674 C60.0455612,60.8454674 59.0056364,61.2407233 58.2151244,62.0312353 L58.0312354,62.2151245 C57.2660874,62.9802724 56.8433537,63.9990606 56.8433537,65.0833725 C56.8433537,66.1676844 57.2660873,67.1843589 58.0312354,67.9516205 L66.0504932,75.9708783 C66.8156411,76.7360263 67.8344293,77.15876 68.9187412,77.15876 C70.0030532,77.15876 71.0197276,76.7360264 71.7869893,75.9708783 L71.9708784,75.7869892 C73.5519024,74.2059652 73.5519024,71.6336308 71.9708784,70.0526068 L63.9516205,62.033349 C63.1611085,61.2407234 62.1211837,60.8454674 61.0833724,60.8454674 L61.0833724,60.8454674 Z" id="形状" fill="#DDDDDD"></path>
                <path d="M1,37.5 C1,57.6583934 17.3416066,74 37.5,74 C57.6583934,74 74,57.6583934 74,37.5 C74,17.3416066 57.6583934,1 37.5,1 C17.3416066,1 1,17.3416066 1,37.5 Z" id="路径" fill="#DCDDDD"></path>
                <path d="M37,74 C16.59815,74 0,57.40185 0,37 C0,16.59815 16.59815,0 37,0 C57.40185,0 74,16.59815 74,37 C74,57.40185 57.40185,74 37,74 Z M37,0.819762937 C17.051069,0.819762937 0.819762937,17.0490196 0.819762937,37 C0.819762937,56.9509804 17.0490196,73.1802371 37,73.1802371 C56.9509804,73.1802371 73.1802371,56.9509804 73.1802371,37 C73.1802371,17.0490196 56.948931,0.819762937 37,0.819762937 Z" id="形状" fill="#DCDDDD"></path>
                <path d="M6,37.5 C6,48.7538659 12.0038659,59.1528671 21.7499999,64.7798002 C31.4961339,70.4067333 43.5038661,70.4067333 53.2500001,64.7798002 C62.9961341,59.1528671 69,48.7538659 69,37.5 C69,20.1030303 54.8969696,6 37.5,6 C20.1030304,6 6,20.1030303 6,37.5 L6,37.5 Z" id="路径" fill="#C9CACA"></path>
                <path d="M37,69 C19.3549861,69 5,54.6450138 5,37 C5,19.3549862 19.3549861,5 37,5 C54.6450139,5 69,19.3549861 69,37 C69,54.6450139 54.6450139,69 37,69 Z M37,5.82611207 C19.8102749,5.82611207 5.82405202,19.8102748 5.82405202,37.0020601 C5.82405202,54.1938454 19.8102749,68.175948 37,68.175948 C54.1897251,68.175948 68.175948,54.1897251 68.175948,37 C68.175948,19.8102749 54.1897251,5.82611207 37,5.82611207 Z" id="形状" fill="#C9CACA"></path>
                <path d="M58.1473543,26.5412591 L57.5426411,27.1459186 C56.4037646,28.2846938 54.5593893,28.2846938 53.4225285,27.1459186 L42.8541574,16.5784872 C41.7152809,15.4397119 41.7152809,13.5955006 42.8541574,12.4587408 L43.4588706,11.8540814 C44.5977471,10.7153062 46.4421224,10.7153062 47.5789832,11.8540814 L58.1473543,22.4235284 C59.2842152,23.5582726 59.2842152,25.4024839 58.1473543,26.5412591 L58.1473543,26.5412591 Z" id="路径" fill="#EFEFEF"></path>
                <path d="M55.0371272,29 C54.1793536,29 53.3195427,28.6739868 52.6655159,28.019923 L41.9810402,17.3348426 C40.6729866,16.0267149 40.6729866,13.8994792 41.9810402,12.5933891 L42.5922803,11.9821145 C43.2259324,11.3484265 44.0674062,11 44.9638916,11 C45.860377,11 46.7018507,11.3484265 47.3355029,11.9821145 L58.017941,22.6671949 C58.6515932,23.3008829 59,24.1424043 59,25.0389405 C59,25.9354766 58.6515932,26.776998 58.017941,27.410686 L57.406701,28.0219605 C56.7547116,28.6739868 55.8949007,29 55.0371272,29 L55.0371272,29 Z M44.9638916,11.8170585 C44.2854151,11.8170585 43.647688,12.081956 43.1688834,12.5607878 L42.5576434,13.1720624 C41.5674345,14.1623273 41.5674345,15.7720172 42.5576434,16.7602445 L53.242119,27.4453249 C54.2323278,28.4355898 55.8419266,28.4355898 56.8321354,27.4453249 L57.4433754,26.8340502 C57.92218,26.3552185 58.1870508,25.7174553 58.1870508,25.0389405 C58.1870508,24.3604256 57.92218,23.7247 57.4433754,23.2438306 L46.7609372,12.5587502 C46.2846405,12.0819835 45.6377871,11.815013 44.9638916,11.8170585 Z" id="形状" fill="#EFEFEF"></path>
                <path d="M56.9911268,40.9911268 C55.6459625,42.3362911 53.4629293,42.3362911 52.117765,40.9911268 L31.0088732,19.882235 C29.6637089,18.5370707 29.6637089,16.3540375 31.0088732,15.0088732 C32.3540375,13.6637089 34.5370707,13.6637089 35.882235,15.0088732 L56.9911268,36.117765 C58.3362911,37.4629293 58.3362911,39.6459625 56.9911268,40.9911268 Z" id="路径" fill="#F7F8F8"></path>
                <path d="M55.1149378,42 C54.1196259,42 53.126405,41.6215275 52.3673751,40.8645876 L31.1375387,19.6326333 C30.4063871,18.9056215 29.9967408,17.9161439 30.0000195,16.8850671 C30.0000195,15.847934 30.4036007,14.8714397 31.1375387,14.1375007 C31.8714767,13.4035618 32.8458787,13 33.8851015,13 C34.9243242,13 35.8987263,13.4035619 36.6326642,14.1375007 L57.8625007,35.367364 C58.5964387,36.101303 59,37.0757062 59,38.1149304 C59,39.1541545 58.5964386,40.1285577 57.8625007,40.8624966 C57.134095,41.591565 56.1455268,42.0008358 55.1149378,42 L55.1149378,42 Z M33.8851015,13.8384707 C33.0717057,13.8384707 32.3064028,14.1563196 31.7292892,14.7313431 C31.1557001,15.3018656 30.8341943,16.0781486 30.8364242,16.887158 C30.8364242,17.7005547 31.1542666,18.4658586 31.7292892,19.042973 L52.9591257,40.2728362 C54.1468088,41.4605209 56.080976,41.4605209 57.2707501,40.2728362 C57.8457727,39.6978129 58.1636034,38.932509 58.1636034,38.1170214 C58.1636034,37.3015337 57.8457727,36.5383208 57.2707501,35.9612064 L36.0388227,14.7313431 C35.469435,14.1573393 34.6936026,13.8357074 33.8851015,13.8384707 Z" id="形状" fill="#F7F8F8"></path>
            </g>
            <g id="编组-6" transform="translate(38, 88)">
                <path d="M28.5361641,16.7853185 L32.7691658,17.4634794 C32.2252074,18.9431532 31.3659608,20.0698419 30.1914263,20.8435455 C29.0168917,21.6172491 27.548146,22.0027243 25.7851893,21.9999855 C22.9932155,21.9999855 20.9273859,21.1301738 19.5877005,19.3905796 C18.5292335,18.0001158 18,16.2420739 18,14.116454 C18,11.5789263 18.6955393,9.5918021 20.0866178,8.15508126 C21.4776964,6.71836042 23.2363222,6 25.3624954,6 C27.7502538,6 29.6347639,6.75222716 31.0160258,8.25668149 C32.3972876,9.76113581 33.0573137,12.0651757 32.9961039,15.1688011 L22.3542664,15.1688011 C22.3848713,16.3698314 22.7272995,17.3043332 23.3815511,17.9723065 C24.007684,18.6284191 24.9010541,18.9938424 25.8310966,18.9742665 C26.4957423,18.9742665 27.0550032,18.8013534 27.5088794,18.4555271 C27.9627556,18.1097009 28.3051838,17.5529647 28.5361641,16.7853185 Z M28.7786933,12.6915727 C28.7480884,11.5191777 28.4304906,10.6279042 27.8258998,10.0177521 C27.2623391,9.42438129 26.4582934,9.09095141 25.6188835,9.10252404 C24.6949625,9.10252404 23.9289743,9.42439576 23.3209188,10.0681392 C22.7128633,10.7118827 22.4157649,11.5863605 22.4296237,12.6915727 L28.7786933,12.6915727 Z" id="形状" fill="url(#linearGradient-3)"></path>
                <path d="M36,4.72408537 L36,1 L36.3741843,1 C38.9289518,1 41,2.66732981 41,4.72408537 L36.0040783,4.72408537 L36,4.72408537 Z M36,22 L36,6.79010319 L40.9959217,6.79010319 L40.9959217,22 L36,22 Z" id="形状" fill="url(#linearGradient-5)"></path>
                <path d="M45,22 L45,1 L45,1 C47.368592,1 49.2887151,2.8007309 49.2887151,5.02204503 L49.2887151,12.1410647 L54.3170148,6.79010319 L59.6026374,6.79010319 L54.0579414,12.3487336 L60,22 L55.3716886,22 L51.293033,15.1674484 L49.2922161,17.1325047 L49.2922161,22 L45,22 Z" id="路径" fill="url(#linearGradient-7)"></path>
                <path d="M70.5388118,16.7845126 L74.7709672,17.4627783 C74.2270062,18.9426807 73.3680444,20.0695436 72.1940818,20.8433668 C71.0201192,21.61719 69.5513667,22.0027247 67.7878242,21.9999855 C64.9958374,21.9999855 62.9297094,21.1300394 61.5894403,19.3901764 C60.5298134,17.9994976 60,16.2411841 60,14.1152356 C60,11.5773158 60.6952538,9.58988445 62.0857614,8.15294157 C63.476269,6.71599869 65.2351918,5.99835339 67.3625298,6.00000284 C69.7508768,6.00000284 71.6353957,6.7523491 73.0160866,8.25703593 C74.3967775,9.76172277 75.0568066,12.0661187 74.996174,15.1702238 L64.3560191,15.1702238 C64.3866242,16.3714397 64.7293427,17.306086 65.3841748,17.9741625 C66.0098395,18.6305193 66.9030295,18.996053 67.8328656,18.9762773 C68.4980918,18.9762773 69.0573553,18.8033375 69.5106562,18.4574578 C69.9639571,18.1115781 70.3066756,17.5539297 70.5388118,16.7845126 Z M70.7804761,12.6901341 C70.749871,11.5175579 70.4322717,10.6261466 69.8276781,10.0159003 C69.264382,9.42305169 68.4611513,9.08964817 67.6223838,9.10053077 C66.6944164,9.10053077 65.9284245,9.42245224 65.3244083,10.0662952 C64.7203922,10.7101381 64.4230037,11.5847511 64.432243,12.6901341 L70.7804761,12.6901341 Z" id="形状" fill="url(#linearGradient-9)"></path>
                <path d="M3,9 L3,9 C3.2694098,9.00368551 3.52623743,9.11119114 3.71381762,9.29879735 C3.9013978,9.48640357 4.00431472,9.7386924 3.99986126,10 L3,10 L3,9 Z" id="路径" fill="url(#linearGradient-11)"></path>
                <path d="M3,12 L3,12 C3.2694098,12.0036855 3.52623743,12.1111911 3.71381762,12.2987974 C3.9013978,12.4864036 4.00431472,12.7386924 3.99986126,13 L3,13 L3,12 Z" id="路径" fill="url(#linearGradient-11)"></path>
                <path d="M0,8 L0,8 C0.269319634,8.00397061 0.525978712,8.11156568 0.713499127,8.29910881 C0.901019541,8.48665193 1.00403575,8.7387757 0.999878913,9 L0,9 L0,8 Z" id="路径" fill="url(#linearGradient-13)"></path>
                <path d="M0,11 L0,11 C0.560581016,11.0088588 1.0079333,11.4562588 0.999893303,12 L0,12 L0,11 Z" id="路径" fill="url(#linearGradient-15)"></path>
                <path d="M11.6384155,11.1567433 C11.0408129,11.4562807 10.3279282,11.6139784 9.59724253,11.8906101 C11.0043634,12.3311064 11.8104911,13.3882975 11.8104911,14.9256295 C11.8104911,17.3157624 10.1999311,18.4495999 7.26786411,18.4495999 L4.30782428,18.4495999 L4.30782428,13.1636444 L0,13.1636444 L0,21.5912194 C0.000467440471,21.8171251 0.17680356,22 0.394163379,22 L7.67643776,22 C12.4233516,22 15.9996425,19.861831 15.9996425,15.2075472 C16.0087426,14.327285 15.8440089,13.4544391 15.5156269,12.6429778 C14.8858131,11.1126936 13.3345895,10 13.3345895,10 C13.3345895,10 12.2419517,10.8536818 11.6384155,11.1567433 Z" id="路径" fill="url(#linearGradient-17)"></path>
                <path d="M4.33963338,3.54854469 L6.90823181,3.54854469 C9.5058636,3.54854469 10.8055334,4.37865547 10.8055334,6.42262437 C10.8055334,8.27427235 9.59467152,9.48813046 6.84931117,9.48813046 L2.804281,9.48813046 L2.804281,10.3182412 L3.57281111,10.3182412 L3.57281111,11.2753733 L2.804281,11.2753733 L2.804281,12.1054841 L3.57281111,12.1054841 L3.57281111,13 L6.23021747,13 C10.3290447,12.9105484 12.0975179,11.8371293 13.2067631,10.7637102 C14.3587043,9.74127847 15,7.40748641 15,5.74726485 C15,1.37308195 11.96516,0.00894515929 7.14391438,0 L0.34156894,0 C0.152925623,0 0,0.160195369 0,0.357806372 L0,8.01486273 L4.33963338,8.01486273 L4.33963338,3.54228308 L4.33963338,3.54854469 Z" id="路径" fill="url(#linearGradient-19)"></path>
            </g>
            <g id="编组-5" transform="translate(124, 88)">
                <path d="M0,14.7043434 L4.10739174,14.2979212 C4.35419482,15.6997593 4.85570087,16.7295285 5.61190988,17.3872288 C6.36811889,18.0449291 7.38802038,18.3737793 8.67161435,18.3737793 C10.0303934,18.3737793 11.0546534,18.0812218 11.7443945,17.4961067 C12.4341355,16.9109917 12.7790061,16.2280805 12.7790061,15.447373 C12.7909504,14.9799057 12.6362396,14.5238196 12.3434232,14.1632782 C12.0530345,13.8108794 11.5468975,13.5039156 10.8250121,13.2423869 C10.3303163,13.068958 9.20363027,12.7595008 7.44495398,12.3140155 C5.18231996,11.7433067 3.59444449,11.0423877 2.68132755,10.2112584 C1.39718877,9.04158239 0.755391782,7.61536451 0.755936601,5.9326047 C0.755360909,4.85090919 1.0704992,3.79337952 1.66142606,2.89399596 C2.26508571,1.95204942 3.13516192,1.23395369 4.27165472,0.739708801 C5.40814751,0.245463907 6.77945737,-0.00110445371 8.38558428,0 C11.0105231,0 12.9860374,0.58511875 14.3121272,1.75534881 C15.6382171,2.92557888 16.334496,4.48727084 16.4009639,6.44042471 L12.1799774,6.62909106 C11.9985526,5.53587898 11.6109138,4.75018474 11.0170609,4.27200835 C10.423208,3.79383196 9.53188382,3.55446672 8.34308839,3.55391263 C7.11615561,3.55391263 6.15591182,3.8101775 5.46235702,4.32270724 C5.03276107,4.6170949 4.77970932,5.11333488 4.79059498,5.64004719 C4.79059498,6.14260338 4.99953313,6.57285131 5.41740944,6.930791 C5.95024259,7.38569577 7.24337089,7.85971652 9.29679435,8.35285324 C11.3502178,8.84598996 12.8697185,9.3546411 13.8552964,9.87880665 C14.803943,10.37256 15.6025813,11.1195635 16.1656021,12.0397428 C16.7218624,12.9539851 17,14.0829357 17,15.4265948 C17.0018446,16.6437035 16.6551141,17.8350149 16.0021563,18.8550032 C15.3358425,19.9188487 14.3943949,20.7092526 13.1778137,21.2262151 C11.9612325,21.7431775 10.445818,22.0011046 8.63157014,22 C5.98865234,22 3.9586561,21.3785888 2.54158144,20.1357734 C1.12450677,18.8929581 0.277312958,17.0824814 0,14.7043434 Z" id="路径" fill="url(#linearGradient-21)"></path>
                <path d="M24.060605,5.02532833 L24.060605,8.71904315 C25.3740128,7.20051595 26.9436817,6.44125235 28.7696118,6.44125235 C29.642774,6.42817732 30.5082301,6.60440918 31.3051031,6.95755159 C32.0589427,7.30175109 32.6265363,7.74089275 33.007884,8.27497655 C33.3885175,8.80805494 33.6546764,9.41256719 33.789951,10.051243 C33.9305349,10.7013368 34.0005501,11.7090369 33.9999999,13.0743433 L33.9999999,22 L29.9319195,22 L29.9319195,13.9641182 C29.9319195,12.3695278 29.8547091,11.3571764 29.7002882,10.9270638 C29.5516635,10.504324 29.2632791,10.1434403 28.8816915,9.90267355 C28.4903812,9.64985929 28.0002748,9.52345216 27.4113722,9.52345216 C26.7730887,9.51282618 26.1448757,9.68162312 25.5998326,10.0102017 C25.0684919,10.3352486 24.681056,10.8247342 24.4375248,11.4786585 C24.1939937,12.1325829 24.0708444,13.0995153 24.068077,14.3794559 L24.068077,22 L19.9999999,22 L19.9999999,1 L19.9999999,1 C22.2451153,1.00407628 24.0624415,2.80561436 24.060605,5.02532833 L24.060605,5.02532833 Z" id="路径" fill="url(#linearGradient-23)"></path>
                <path d="M36.9999998,13.7843864 C37.0036674,12.4205402 37.3485602,11.0787105 38.0040262,9.87815091 C38.6398016,8.65529076 39.6348338,7.65049267 40.8588079,6.99535077 C42.0904136,6.33453698 43.465372,6.00275339 44.983683,6 C47.329758,6 49.2524685,6.75222636 50.7518146,8.25667908 C52.2511607,9.7611318 53.0005548,11.6609714 52.9999998,13.956198 C52.9999998,16.2723503 52.2430727,18.1920144 50.729224,19.7151901 C49.2153753,21.2383659 47.3099563,21.9999771 45.0129671,21.9999771 C43.6022165,22.003141 42.2104624,21.6788808 40.950007,21.053338 C39.6957495,20.4530843 38.6658008,19.4767479 38.0073729,18.2638779 C37.3357908,17.0397203 36.9999998,15.5465565 36.9999998,13.7843864 Z M41.205197,14.0008029 C41.205197,15.5195733 41.5702721,16.6826055 42.3004224,17.4898997 C43.0305727,18.2971939 43.9308497,18.7005656 45.0012534,18.7000155 C46.0722149,18.7000155 46.9702607,18.2966432 47.6953909,17.4898997 C48.4205211,16.6831562 48.7830862,15.5104871 48.7830862,13.9718923 C48.7830862,12.4729464 48.4205211,11.3198263 47.6953909,10.5125321 C46.9702607,9.70523797 46.0722149,9.30159088 45.0012534,9.30159088 C43.930292,9.30159088 43.030015,9.70523797 42.3004224,10.5125321 C41.5708299,11.3198263 41.2057548,12.4828586 41.205197,14.0016289 L41.205197,14.0008029 Z" id="形状" fill="url(#linearGradient-25)"></path>
                <path d="M56,6.35485939 L57.6371678,6.35485939 C58.9676815,6.35532651 60.0460169,7.38658351 60.0460168,8.65854194 L60.0460168,8.65854194 C60.5815707,7.86180745 61.313243,7.20271229 62.1769898,6.73894748 C63.0844138,6.24368791 64.113582,5.98873903 65.1584051,6.00038162 C67.0628294,6.00038162 68.6793482,6.71413122 70.0079615,8.14163043 C71.3365748,9.56912964 72.0005865,11.5572508 72,14.105994 C72,16.7252379 71.3306751,18.7604536 69.9920323,20.211641 C68.6533895,21.6628285 67.030971,22.3887042 65.1247768,22.3892682 C64.2728568,22.4006414 63.429702,22.2237394 62.6610605,21.8723567 C61.9247775,21.527749 61.1501464,20.9372348 60.3371672,20.1008138 L60.3371672,28 L56.000885,28 L56,6.35485939 Z M60.2929194,13.9291781 C60.2929194,15.6916969 60.658701,16.9934227 61.3902643,17.8343557 C62.1218276,18.6752887 63.0123878,19.0960371 64.0619451,19.0966011 C65.0707945,19.0966011 65.9097323,18.710257 66.5787587,17.9375688 C67.2477851,17.1648806 67.5825933,15.8975591 67.5831833,14.1356043 C67.5831833,12.4920908 67.2380506,11.2715818 66.5477853,10.4740773 C65.85752,9.67657278 65.0020629,9.27810254 63.9814142,9.27866594 C62.9194675,9.27866594 62.0392317,9.66980471 61.3407068,10.452081 C60.6421819,11.2343574 60.2929194,12.3922617 60.2929194,13.9257941 L60.2929194,13.9291781 Z" id="形状" fill="url(#linearGradient-27)"></path>
            </g>
        </g>
    </g>
</svg>